<svg xmlns="http://www.w3.org/2000/svg" viewBox="0 0 1024 1024">
  <defs>
    <linearGradient id="bgB" x1="0" y1="0" x2="1" y2="1">
      <stop offset="0%" stop-color="#2B1A10"/>
      <stop offset="100%" stop-color="#5A3825"/>
    </linearGradient>
  </defs>
  <rect width="1024" height="1024" rx="220" fill="url(#bgB)"/>
  <rect x="220" y="300" width="288" height="390" rx="48" fill="#EFE0C2" stroke="#2A1A12" stroke-width="10"/>
  <rect x="516" y="300" width="288" height="390" rx="48" fill="#FFF8E8" stroke="#2A1A12" stroke-width="10"/>
  <line x1="512" y1="304" x2="512" y2="686" stroke="#8B5E3C" stroke-width="14"/>
  <line x1="268" y1="356" x2="460" y2="356" stroke="#B79A7A" stroke-width="6"/>
  <line x1="268" y1="410" x2="460" y2="410" stroke="#B79A7A" stroke-width="6"/>
  <line x1="268" y1="464" x2="460" y2="464" stroke="#B79A7A" stroke-width="6"/>
  <line x1="268" y1="518" x2="460" y2="518" stroke="#B79A7A" stroke-width="6"/>
  <line x1="268" y1="572" x2="460" y2="572" stroke="#B79A7A" stroke-width="6"/>
  <line x1="268" y1="626" x2="460" y2="626" stroke="#B79A7A" stroke-width="6"/>
  <line x1="564" y1="356" x2="756" y2="356" stroke="#B79A7A" stroke-width="6"/>
  <line x1="564" y1="410" x2="756" y2="410" stroke="#B79A7A" stroke-width="6"/>
  <line x1="564" y1="464" x2="756" y2="464" stroke="#B79A7A" stroke-width="6"/>
  <line x1="564" y1="518" x2="756" y2="518" stroke="#B79A7A" stroke-width="6"/>
  <line x1="564" y1="572" x2="756" y2="572" stroke="#B79A7A" stroke-width="6"/>
  <line x1="564" y1="626" x2="756" y2="626" stroke="#B79A7A" stroke-width="6"/>
  <circle cx="512" cy="512" r="126" fill="none" stroke="#E4C978" stroke-width="38"/>
  <line x1="604" y1="604" x2="716" y2="716" stroke="#E4C978" stroke-width="50" stroke-linecap="round"/>
  <rect x="496" y="652" width="32" height="92" rx="8" fill="#C9A24A"/>
</svg>
